<?xml version="1.0" standalone="no"?><!DOCTYPE svg PUBLIC "-//W3C//DTD SVG 1.1//EN" "http://www.w3.org/Graphics/SVG/1.1/DTD/svg11.dtd"><svg t="1515815545215" class="icon" style="" viewBox="0 0 1348 1024" version="1.1" xmlns="http://www.w3.org/2000/svg" p-id="1073" xmlns:xlink="http://www.w3.org/1999/xlink" width="526.5625" height="400"><defs><style type="text/css"></style></defs><path d="M346.703142 161.878075 73.352203 161.878075C32.849499 161.878075 0 194.481642 0 234.689999L0 924.434594C0 964.642951 32.822551 997.246491 73.352203 997.246491L1274.01621 997.246491C1314.545861 997.246491 1347.368413 964.642951 1347.368413 924.434594L1347.368413 234.689999C1347.368413 194.454668 1314.545861 161.878075 1274.01621 161.878075L1007.570092 161.878075C982.974536 142.456514 951.487107 109.424134 922.88907 54.652718 892.688411-3.195305 807.789218 2.257684 808.421048 0.717049L538.947365 0.193866C540.802551 2.257684 470.709164-13.226759 428.540691 53.983939 398.771634 101.454288 371.936407 138.861035 346.703142 161.878075L346.703142 161.878075ZM662.306168 269.667548C819.693776 269.667548 970.105257 402.409934 970.105257 566.088599 970.105257 729.793053 819.693776 862.50965 662.306168 862.50965 504.89282 862.50965 377.263156 729.793053 377.263156 566.088599 377.263156 402.384172 504.89282 269.667548 662.306168 269.667548ZM1104.842098 283.128567C1104.842098 305.473514 1086.748746 323.562285 1064.40848 323.562285 1042.093346 323.562285 1023.999994 305.473514 1023.999994 283.128567 1023.999994 260.834282 1042.093346 242.72018 1064.40848 242.72018 1086.748746 242.72018 1104.842098 260.808951 1104.842098 283.128567ZM673.684206 323.562285C807.624004 323.562285 916.210521 432.156164 916.210521 566.088599 916.210521 700.021061 807.651382 808.614913 673.684206 808.614913 539.744409 808.614913 431.157892 700.021061 431.157892 566.088599 431.157892 432.128731 539.744409 323.562285 673.684206 323.562285ZM161.68421 107.983339 161.68421 72.062416C161.68421 62.142147 169.07938 54.088602 178.201712 54.088602L252.95618 54.088602C262.078512 54.088602 269.473683 62.142147 269.473683 72.062416L269.473683 107.983339 161.68421 107.983339Z" p-id="1074" fill="#fff"></path></svg>