<?xml version="1.0" standalone="no"?><!DOCTYPE svg PUBLIC "-//W3C//DTD SVG 1.1//EN" "http://www.w3.org/Graphics/SVG/1.1/DTD/svg11.dtd"><svg t="1511922322362" class="icon" style="" viewBox="0 0 1024 1024" version="1.1" xmlns="http://www.w3.org/2000/svg" p-id="1849" xmlns:xlink="http://www.w3.org/1999/xlink" width="200" height="200"><defs><style type="text/css"></style></defs><path d="M526.999622 48.046273c25.069979 0 42.97272 17.902742 42.97272 43.001373l0 168.351266c0 25.069979-17.902742 44.771693-42.97272 44.771693-25.069979 0-44.771693-19.701714-44.771693-44.771693L482.227929 91.047646C482.227929 65.949015 501.929644 48.046273 526.999622 48.046273" p-id="1850" fill="#ffffff"></path><path d="M324.600913 142.975319l98.509594 136.114051c21.500687 28.667923 0 69.870324-35.806507 69.870324-14.33345 0-25.098631-5.368264-34.036187-17.902742l-98.509594-136.142703c-14.33345-19.701714-10.764158-46.570665 8.937556-60.904115C283.398512 119.704312 310.267463 123.273604 324.600913 142.975319" p-id="1851" fill="#ffffff"></path><path d="M129.36637 413.43617c-23.271006-7.167237-35.834136-32.237215-28.667923-55.536874 7.167237-23.271006 32.237215-35.806507 55.536874-28.639271l159.41371 51.938929c23.271006 7.167237 35.806507 32.237215 28.667923 55.508221-5.396917 17.931395-25.098631 30.466895-43.001373 30.466895-5.368264 0-7.167237-1.798972-12.534478-3.597945L129.36637 413.43617z" p-id="1852" fill="#ffffff"></path><path d="M344.302627 554.938951c7.167237 23.271006-5.368264 48.369637-28.667923 55.536874L156.220994 662.414755c-5.368264 1.77032-8.937556 1.77032-14.304797 1.77032-17.931395 0-35.834136-12.535501-41.202401-30.438243-7.167237-23.271006 5.368264-48.369637 28.639271-55.536874l159.41371-51.938929C312.066435 519.104815 337.136414 531.667945 344.302627 554.938951" p-id="1853" fill="#ffffff"></path><path d="M414.158624 651.658783c19.701714 14.33345 23.271006 41.202401 8.966209 60.904115L324.615239 848.676949c-8.966209 12.534478-21.500687 17.931395-35.834136 17.931395-35.834136 0-55.536874-41.202401-34.036187-69.870324l98.509594-136.114051C367.587959 640.922255 394.45691 637.32431 414.158624 651.658783" p-id="1854" fill="#ffffff"></path><path d="M526.999622 687.481663c25.069979 0 42.97272 19.701714 42.97272 44.771693l0 166.580946c0 25.069979-17.902742 44.771693-42.97272 44.771693-25.069979 0-44.771693-19.701714-44.771693-44.771693L482.227929 732.253356C482.227929 707.183378 501.929644 687.481663 526.999622 687.481663" p-id="1855" fill="#ffffff"></path><path d="M700.738595 660.615782l98.509594 136.114051c21.500687 28.667923 0 69.870324-35.806507 69.870324-14.33345 0-25.098631-5.368264-34.036187-17.902742l-98.509594-136.142703c-14.33345-19.701714-10.764158-46.570665 8.937556-60.904115C659.536194 637.344776 686.405145 640.914068 700.738595 660.615782" p-id="1856" fill="#ffffff"></path><path d="M924.632875 578.221214c23.271006 7.167237 35.834136 32.237215 28.667923 55.536874-5.396917 17.902742-25.098631 30.438243-43.001373 30.438243-5.368264 0-7.167237 0-12.534478-1.798972l-159.41371-51.938929c-23.271006-7.167237-35.806507-32.237215-28.639271-55.508221 7.138584-23.299659 32.237215-35.834136 55.508221-28.667923L924.632875 578.221214z" p-id="1857" fill="#ffffff"></path><path d="M709.695594 436.722526c-7.167237-23.271006 5.368264-48.369637 28.667923-55.536874l159.41371-51.938929c23.271006-7.167237 48.340985 5.368264 55.508221 28.667923 7.167237 23.271006-5.368264 48.369637-28.667923 55.536874l-159.385057 50.139957c-5.396917 1.798972-8.966209 3.569292-14.33345 3.569292C732.967624 467.159746 715.063859 454.625268 709.695594 436.722526" p-id="1858" fill="#ffffff"></path><path d="M664.915715 348.957647c-35.834136 0-55.536874-41.202401-34.036187-69.841671l98.509594-136.142703c14.33345-19.701714 41.202401-23.271006 60.904115-8.937556 19.701714 14.304797 23.299659 41.173748 8.966209 60.876486l-98.509594 136.142703C691.784666 343.589382 679.249165 348.957647 664.915715 348.957647" p-id="1859" fill="#ffffff"></path></svg>